<svg version="1.1" viewBox="0.0 0.0 600.0 371.0" fill="none" stroke="none" stroke-linecap="square" stroke-miterlimit="10" width="600" height="371" xmlns:xlink="http://www.w3.org/1999/xlink" xmlns="http://www.w3.org/2000/svg"><path fill="#ffffff" d="M0 0L600.0 0L600.0 371.0L0 371.0L0 0Z" fill-rule="nonzero"/><path stroke="#cccccc" stroke-width="1.0" stroke-linecap="butt" d="M105.5 51.5L105.5 300.5" fill-rule="nonzero"/><path stroke="#cccccc" stroke-width="1.0" stroke-linecap="butt" d="M200.5 51.5L200.5 300.5" fill-rule="nonzero"/><path stroke="#cccccc" stroke-width="1.0" stroke-linecap="butt" d="M295.5 51.5L295.5 300.5" fill-rule="nonzero"/><path stroke="#cccccc" stroke-width="1.0" stroke-linecap="butt" d="M391.5 51.5L391.5 300.5" fill-rule="nonzero"/><path stroke="#cccccc" stroke-width="1.0" stroke-linecap="butt" d="M486.5 51.5L486.5 300.5" fill-rule="nonzero"/><path stroke="#cccccc" stroke-width="1.0" stroke-linecap="butt" d="M581.5 51.5L581.5 300.5" fill-rule="nonzero"/><path stroke="#333333" stroke-width="1.0" stroke-linecap="butt" d="M105.5 300.5L581.5 300.5" fill-rule="nonzero"/><path stroke="#cccccc" stroke-width="1.0" stroke-linecap="butt" d="M105.5 238.5L581.5 238.5" fill-rule="nonzero"/><path stroke="#cccccc" stroke-width="1.0" stroke-linecap="butt" d="M105.5 176.5L581.5 176.5" fill-rule="nonzero"/><path stroke="#cccccc" stroke-width="1.0" stroke-linecap="butt" d="M105.5 114.5L581.5 114.5" fill-rule="nonzero"/><path stroke="#cccccc" stroke-width="1.0" stroke-linecap="butt" d="M105.5 51.5L581.5 51.5" fill-rule="nonzero"/><clipPath id="id_0"><path d="M105.55 51.916668L581.45 51.916668L581.45 300.45L105.55 300.45L105.55 51.916668Z" clip-rule="nonzero"/></clipPath><path stroke="#4285f4" stroke-width="2.0" stroke-linecap="butt" clip-path="url(#id_0)" d="M105.55 271.55228L200.73 242.59256L295.91 213.3761L391.09 184.93071L486.27 156.10843L581.45 123.9461" fill-rule="nonzero"/><path stroke="#ea4335" stroke-width="2.0" stroke-linecap="butt" clip-path="url(#id_0)" d="M105.55 264.1353L200.73 227.98862L295.91 191.85124L391.09 155.87642L486.27 117.5399L581.45 83.504135" fill-rule="nonzero"/><path stroke="#fbbc04" stroke-width="2.0" stroke-linecap="butt" stroke-dasharray="8.0,6.0,2.0,6.0" clip-path="url(#id_0)" d="M105.55 270.33496L200.73 239.94418L295.91 210.59328L391.09 180.55927L486.27 150.64491L581.45 118.252205" fill-rule="nonzero"/><path fill="#000000" fill-opacity="0.0" clip-path="url(#id_0)" d="M108.55 271.55228C108.55 273.20914 107.206856 274.55228 105.55 274.55228C103.89314 274.55228 102.55 273.20914 102.55 271.55228C102.55 269.89542 103.89314 268.55228 105.55 268.55228C107.206856 268.55228 108.55 269.89542 108.55 271.55228Z" fill-rule="nonzero"/><path fill="#000000" fill-opacity="0.0" clip-path="url(#id_0)" d="M203.73 242.59256C203.73 244.24942 202.38686 245.59256 200.73 245.59256C199.07315 245.59256 197.73 244.24942 197.73 242.59256C197.73 240.9357 199.07315 239.59256 200.73 239.59256C202.38686 239.59256 203.73 240.9357 203.73 242.59256Z" fill-rule="nonzero"/><path fill="#000000" fill-opacity="0.0" clip-path="url(#id_0)" d="M298.91 213.3761C298.91 215.03296 297.56686 216.3761 295.91 216.3761C294.25314 216.3761 292.91 215.03296 292.91 213.3761C292.91 211.71924 294.25314 210.3761 295.91 210.3761C297.56686 210.3761 298.91 211.71924 298.91 213.3761Z" fill-rule="nonzero"/><path fill="#000000" fill-opacity="0.0" clip-path="url(#id_0)" d="M394.09 184.93071C394.09 186.58757 392.74686 187.93071 391.09 187.93071C389.43314 187.93071 388.09 186.58757 388.09 184.93071C388.09 183.27386 389.43314 181.93071 391.09 181.93071C392.74686 181.93071 394.09 183.27386 394.09 184.93071Z" fill-rule="nonzero"/><path fill="#000000" fill-opacity="0.0" clip-path="url(#id_0)" d="M489.27 156.10843C489.27 157.76527 487.92685 159.10843 486.27 159.10843C484.61316 159.10843 483.27 157.76527 483.27 156.10843C483.27 154.45157 484.61316 153.10843 486.27 153.10843C487.92685 153.10843 489.27 154.45157 489.27 156.10843Z" fill-rule="nonzero"/><path fill="#000000" fill-opacity="0.0" clip-path="url(#id_0)" d="M584.45 123.9461C584.45 125.60295 583.1069 126.9461 581.45 126.9461C579.79315 126.9461 578.45 125.60295 578.45 123.9461C578.45 122.289246 579.79315 120.9461 581.45 120.9461C583.1069 120.9461 584.45 122.289246 584.45 123.9461Z" fill-rule="nonzero"/><path fill="#000000" fill-opacity="0.0" clip-path="url(#id_0)" d="M108.55 264.1353C108.55 265.79214 107.206856 267.1353 105.55 267.1353C103.89314 267.1353 102.55 265.79214 102.55 264.1353C102.55 262.47845 103.89314 261.1353 105.55 261.1353C107.206856 261.1353 108.55 262.47845 108.55 264.1353Z" fill-rule="nonzero"/><path fill="#000000" fill-opacity="0.0" clip-path="url(#id_0)" d="M203.73 227.98862C203.73 229.64548 202.38686 230.98862 200.73 230.98862C199.07315 230.98862 197.73 229.64548 197.73 227.98862C197.73 226.33176 199.07315 224.98862 200.73 224.98862C202.38686 224.98862 203.73 226.33176 203.73 227.98862Z" fill-rule="nonzero"/><path fill="#000000" fill-opacity="0.0" clip-path="url(#id_0)" d="M298.91 191.85124C298.91 193.5081 297.56686 194.85124 295.91 194.85124C294.25314 194.85124 292.91 193.5081 292.91 191.85124C292.91 190.1944 294.25314 188.85124 295.91 188.85124C297.56686 188.85124 298.91 190.1944 298.91 191.85124Z" fill-rule="nonzero"/><path fill="#000000" fill-opacity="0.0" clip-path="url(#id_0)" d="M394.09 155.87642C394.09 157.53328 392.74686 158.87642 391.09 158.87642C389.43314 158.87642 388.09 157.53328 388.09 155.87642C388.09 154.21956 389.43314 152.87642 391.09 152.87642C392.74686 152.87642 394.09 154.21956 394.09 155.87642Z" fill-rule="nonzero"/><path fill="#000000" fill-opacity="0.0" clip-path="url(#id_0)" d="M489.27 117.5399C489.27 119.19676 487.92685 120.5399 486.27 120.5399C484.61316 120.5399 483.27 119.19676 483.27 117.5399C483.27 115.88305 484.61316 114.5399 486.27 114.5399C487.92685 114.5399 489.27 115.88305 489.27 117.5399Z" fill-rule="nonzero"/><path fill="#000000" fill-opacity="0.0" clip-path="url(#id_0)" d="M584.45 83.504135C584.45 85.16099 583.1069 86.504135 581.45 86.504135C579.79315 86.504135 578.45 85.16099 578.45 83.504135C578.45 81.84728 579.79315 80.504135 581.45 80.504135C583.1069 80.504135 584.45 81.84728 584.45 83.504135Z" fill-rule="nonzero"/><path fill="#000000" fill-opacity="0.0" clip-path="url(#id_0)" d="M108.55 270.33496C108.55 271.99182 107.206856 273.33496 105.55 273.33496C103.89314 273.33496 102.55 271.99182 102.55 270.33496C102.55 268.6781 103.89314 267.33496 105.55 267.33496C107.206856 267.33496 108.55 268.6781 108.55 270.33496Z" fill-rule="nonzero"/><path fill="#000000" fill-opacity="0.0" clip-path="url(#id_0)" d="M203.73 239.94418C203.73 241.60104 202.38686 242.94418 200.73 242.94418C199.07315 242.94418 197.73 241.60104 197.73 239.94418C197.73 238.28734 199.07315 236.94418 200.73 236.94418C202.38686 236.94418 203.73 238.28734 203.73 239.94418Z" fill-rule="nonzero"/><path fill="#000000" fill-opacity="0.0" clip-path="url(#id_0)" d="M298.91 210.59328C298.91 212.25012 297.56686 213.59328 295.91 213.59328C294.25314 213.59328 292.91 212.25012 292.91 210.59328C292.91 208.93642 294.25314 207.59328 295.91 207.59328C297.56686 207.59328 298.91 208.93642 298.91 210.59328Z" fill-rule="nonzero"/><path fill="#000000" fill-opacity="0.0" clip-path="url(#id_0)" d="M394.09 180.55927C394.09 182.21611 392.74686 183.55927 391.09 183.55927C389.43314 183.55927 388.09 182.21611 388.09 180.55927C388.09 178.9024 389.43314 177.55927 391.09 177.55927C392.74686 177.55927 394.09 178.9024 394.09 180.55927Z" fill-rule="nonzero"/><path fill="#000000" fill-opacity="0.0" clip-path="url(#id_0)" d="M489.27 150.64491C489.27 152.30177 487.92685 153.64491 486.27 153.64491C484.61316 153.64491 483.27 152.30177 483.27 150.64491C483.27 148.98807 484.61316 147.64491 486.27 147.64491C487.92685 147.64491 489.27 148.98807 489.27 150.64491Z" fill-rule="nonzero"/><path fill="#000000" fill-opacity="0.0" clip-path="url(#id_0)" d="M584.45 118.252205C584.45 119.90906 583.1069 121.252205 581.45 121.252205C579.79315 121.252205 578.45 119.90906 578.45 118.252205C578.45 116.595345 579.79315 115.252205 581.45 115.252205C583.1069 115.252205 584.45 116.595345 584.45 118.252205Z" fill-rule="nonzero"/><path fill="#000000" d="M339.92188 349.45L339.92188 340.85626L341.07812 340.85626L345.59375 347.60626L345.59375 340.85626L346.6875 340.85626L346.6875 349.45L345.51562 349.45L341.0 342.7L341.0 349.45L339.92188 349.45Z" fill-rule="nonzero"/><path fill="#000000" d="M26.534388 188.62083L26.831263 187.49583Q28.221888 187.85521 28.956263 188.77708Q29.690638 189.69896 29.690638 191.04271Q29.690638 192.43333 29.128138 193.30833Q28.565638 194.18333 27.503138 194.63646Q26.425013 195.08958 25.190638 195.08958Q23.846888 195.08958 22.846888 194.57396Q21.846888 194.05833 21.331263 193.12083Q20.815638 192.16771 20.815638 191.02708Q20.815638 189.74583 21.471888 188.87083Q22.128138 187.98021 23.315638 187.63646L23.581263 188.76146Q22.643763 189.05833 22.221888 189.63646Q21.784388 190.19896 21.784388 191.05833Q21.784388 192.04271 22.268763 192.71458Q22.737513 193.37083 23.534388 193.65208Q24.331263 193.91771 25.190638 193.91771Q26.284388 193.91771 27.096888 193.60521Q27.909388 193.27708 28.315638 192.60521Q28.721888 191.93333 28.721888 191.13646Q28.721888 190.18333 28.175013 189.52708Q27.628138 188.85521 26.534388 188.62083ZM29.550013 185.76146L20.956263 185.76146L20.956263 182.51146Q20.956263 181.66771 21.034388 181.21458Q21.143763 180.57396 21.440638 180.15208Q21.737513 179.71458 22.268763 179.46458Q22.800013 179.19896 23.440638 179.19896Q24.534388 179.19896 25.300013 179.90208Q26.050013 180.58958 26.050013 182.41771L26.050013 184.62083L29.550013 184.62083L29.550013 185.76146ZM25.050013 184.62083L25.050013 182.40208Q25.050013 181.29271 24.643763 180.83958Q24.221888 180.37083 23.471888 180.37083Q22.940638 180.37083 22.565638 180.65208Q22.175013 180.91771 22.050013 181.35521Q21.971888 181.65208 21.971888 182.41771L21.971888 184.62083L25.050013 184.62083ZM20.956263 172.12083L20.956263 170.98021L25.925013 170.98021Q27.221888 170.98021 27.987513 171.27708Q28.737513 171.57396 29.221888 172.33958Q29.690638 173.10521 29.690638 174.33958Q29.690638 175.54271 29.284388 176.32396Q28.862513 177.08958 28.081263 177.41771Q27.284388 177.74583 25.925013 177.74583L20.956263 177.74583L20.956263 176.60521L25.909388 176.60521Q27.034388 176.60521 27.565638 176.40208Q28.096888 176.18333 28.393763 175.68333Q28.675013 175.16771 28.675013 174.43333Q28.675013 173.18333 28.112513 172.65208Q27.534388 172.12083 25.909388 172.12083L20.956263 172.12083Z" fill-rule="nonzero"/><path fill="#000000" d="M93.05 300.21564Q93.05 298.6844 93.3625 297.7625Q93.675 296.825 94.28438 296.325Q94.90938 295.825 95.84688 295.825Q96.53438 295.825 97.05 296.10626Q97.58125 296.3875 97.925 296.91876Q98.26875 297.4344 98.45625 298.1844Q98.64375 298.9344 98.64375 300.21564Q98.64375 301.73126 98.33125 302.65314Q98.03438 303.575 97.40938 304.09064Q96.8 304.59064 95.84688 304.59064Q94.6125 304.59064 93.89375 303.7Q93.05 302.6375 93.05 300.21564ZM94.12813 300.21564Q94.12813 302.325 94.62813 303.02814Q95.12813 303.73126 95.84688 303.73126Q96.58125 303.73126 97.06563 303.02814Q97.56563 302.325 97.56563 300.21564Q97.56563 298.09064 97.06563 297.40314Q96.58125 296.7 95.83125 296.7Q95.1125 296.7 94.675 297.3094Q94.12813 298.09064 94.12813 300.21564Z" fill-rule="nonzero"/><path fill="#000000" d="M58.05 240.06667L59.159374 239.97292Q59.284374 240.78542 59.721874 241.19167Q60.175 241.59792 60.815624 241.59792Q61.565624 241.59792 62.096874 241.01979Q62.628124 240.44167 62.628124 239.50417Q62.628124 238.59792 62.1125 238.08229Q61.6125 237.55104 60.784374 237.55104Q60.284374 237.55104 59.8625 237.78542Q59.45625 238.01979 59.221874 238.37917L58.2375 238.25417L59.065624 233.84792L63.346874 233.84792L63.346874 234.84792L59.909374 234.84792L59.45625 237.16042Q60.221874 236.61354 61.065624 236.61354Q62.190624 236.61354 62.95625 237.39479Q63.7375 238.17604 63.7375 239.41042Q63.7375 240.56667 63.065624 241.42604Q62.2375 242.45729 60.815624 242.45729Q59.64375 242.45729 58.89375 241.80104Q58.159374 241.14479 58.05 240.06667ZM65.05 238.08229Q65.05 236.55104 65.3625 235.62917Q65.675 234.69167 66.28438 234.19167Q66.90938 233.69167 67.84688 233.69167Q68.53438 233.69167 69.05 233.97292Q69.58125 234.25417 69.925 234.78542Q70.26875 235.30104 70.45625 236.05104Q70.64375 236.80104 70.64375 238.08229Q70.64375 239.59792 70.33125 240.51979Q70.03438 241.44167 69.40938 241.95729Q68.8 242.45729 67.84688 242.45729Q66.6125 242.45729 65.89375 241.56667Q65.05 240.50417 65.05 238.08229ZM66.12813 238.08229Q66.12813 240.19167 66.62813 240.89479Q67.12813 241.59792 67.84688 241.59792Q68.58125 241.59792 69.06563 240.89479Q69.56563 240.19167 69.56563 238.08229Q69.56563 235.95729 69.06563 235.26979Q68.58125 234.56667 67.83125 234.56667Q67.1125 234.56667 66.675 235.17604Q66.12813 235.95729 66.12813 238.08229ZM72.05 238.08229Q72.05 236.55104 72.3625 235.62917Q72.675 234.69167 73.28438 234.19167Q73.90938 233.69167 74.84688 233.69167Q75.53438 233.69167 76.05 233.97292Q76.58125 234.25417 76.925 234.78542Q77.26875 235.30104 77.45625 236.05104Q77.64375 236.80104 77.64375 238.08229Q77.64375 239.59792 77.33125 240.51979Q77.03438 241.44167 76.40938 241.95729Q75.8 242.45729 74.84688 242.45729Q73.6125 242.45729 72.89375 241.56667Q72.05 240.50417 72.05 238.08229ZM73.12813 238.08229Q73.12813 240.19167 73.62813 240.89479Q74.12813 241.59792 74.84688 241.59792Q75.58125 241.59792 76.06563 240.89479Q76.56563 240.19167 76.56563 238.08229Q76.56563 235.95729 76.06563 235.26979Q75.58125 234.56667 74.83125 234.56667Q74.1125 234.56667 73.675 235.17604Q73.12813 235.95729 73.12813 238.08229ZM79.05 238.08229Q79.05 236.55104 79.3625 235.62917Q79.675 234.69167 80.28438 234.19167Q80.90938 233.69167 81.84688 233.69167Q82.53438 233.69167 83.05 233.97292Q83.58125 234.25417 83.925 234.78542Q84.26875 235.30104 84.45625 236.05104Q84.64375 236.80104 84.64375 238.08229Q84.64375 239.59792 84.33125 240.51979Q84.03438 241.44167 83.40938 241.95729Q82.8 242.45729 81.84688 242.45729Q80.6125 242.45729 79.89375 241.56667Q79.05 240.50417 79.05 238.08229ZM80.12813 238.08229Q80.12813 240.19167 80.62813 240.89479Q81.12813 241.59792 81.84688 241.59792Q82.58125 241.59792 83.06563 240.89479Q83.56563 240.19167 83.56563 238.08229Q83.56563 235.95729 83.06563 235.26979Q82.58125 234.56667 81.83125 234.56667Q81.1125 234.56667 80.675 235.17604Q80.12813 235.95729 80.12813 238.08229ZM86.05 238.08229Q86.05 236.55104 86.3625 235.62917Q86.675 234.69167 87.28438 234.19167Q87.90938 233.69167 88.84688 233.69167Q89.53438 233.69167 90.05 233.97292Q90.58125 234.25417 90.925 234.78542Q91.26875 235.30104 91.45625 236.05104Q91.64375 236.80104 91.64375 238.08229Q91.64375 239.59792 91.33125 240.51979Q91.03438 241.44167 90.40938 241.95729Q89.8 242.45729 88.84688 242.45729Q87.6125 242.45729 86.89375 241.56667Q86.05 240.50417 86.05 238.08229ZM87.12813 238.08229Q87.12813 240.19167 87.62813 240.89479Q88.12813 241.59792 88.84688 241.59792Q89.58125 241.59792 90.06563 240.89479Q90.56563 240.19167 90.56563 238.08229Q90.56563 235.95729 90.06563 235.26979Q89.58125 234.56667 88.83125 234.56667Q88.1125 234.56667 87.675 235.17604Q87.12813 235.95729 87.12813 238.08229ZM93.05 238.08229Q93.05 236.55104 93.3625 235.62917Q93.675 234.69167 94.28438 234.19167Q94.90938 233.69167 95.84688 233.69167Q96.53438 233.69167 97.05 233.97292Q97.58125 234.25417 97.925 234.78542Q98.26875 235.30104 98.45625 236.05104Q98.64375 236.80104 98.64375 238.08229Q98.64375 239.59792 98.33125 240.51979Q98.03438 241.44167 97.40938 241.95729Q96.8 242.45729 95.84688 242.45729Q94.6125 242.45729 93.89375 241.56667Q93.05 240.50417 93.05 238.08229ZM94.12813 238.08229Q94.12813 240.19167 94.62813 240.89479Q95.12813 241.59792 95.84688 241.59792Q96.58125 241.59792 97.06563 240.89479Q97.56563 240.19167 97.56563 238.08229Q97.56563 235.95729 97.06563 235.26979Q96.58125 234.56667 95.83125 234.56667Q95.1125 234.56667 94.675 235.17604Q94.12813 235.95729 94.12813 238.08229Z" fill-rule="nonzero"/><path fill="#000000" d="M55.01875 180.18333L53.971874 180.18333L53.971874 173.46458Q53.58125 173.82396 52.95625 174.19896Q52.346874 174.55833 51.8625 174.73021L51.8625 173.71458Q52.7375 173.29271 53.39375 172.71458Q54.065624 172.12083 54.346874 171.55833L55.01875 171.55833L55.01875 180.18333ZM58.05 175.94896Q58.05 174.41771 58.3625 173.49583Q58.675 172.55833 59.284374 172.05833Q59.909374 171.55833 60.846874 171.55833Q61.534374 171.55833 62.05 171.83958Q62.58125 172.12083 62.925 172.65208Q63.26875 173.16771 63.45625 173.91771Q63.64375 174.66771 63.64375 175.94896Q63.64375 177.46458 63.33125 178.38646Q63.034374 179.30833 62.409374 179.82396Q61.8 180.32396 60.846874 180.32396Q59.6125 180.32396 58.89375 179.43333Q58.05 178.37083 58.05 175.94896ZM59.128124 175.94896Q59.128124 178.05833 59.628124 178.76146Q60.128124 179.46458 60.846874 179.46458Q61.58125 179.46458 62.065624 178.76146Q62.565624 178.05833 62.565624 175.94896Q62.565624 173.82396 62.065624 173.13646Q61.58125 172.43333 60.83125 172.43333Q60.1125 172.43333 59.675 173.04271Q59.128124 173.82396 59.128124 175.94896ZM65.05 175.94896Q65.05 174.41771 65.3625 173.49583Q65.675 172.55833 66.28438 172.05833Q66.90938 171.55833 67.84688 171.55833Q68.53438 171.55833 69.05 171.83958Q69.58125 172.12083 69.925 172.65208Q70.26875 173.16771 70.45625 173.91771Q70.64375 174.66771 70.64375 175.94896Q70.64375 177.46458 70.33125 178.38646Q70.03438 179.30833 69.40938 179.82396Q68.8 180.32396 67.84688 180.32396Q66.6125 180.32396 65.89375 179.43333Q65.05 178.37083 65.05 175.94896ZM66.12813 175.94896Q66.12813 178.05833 66.62813 178.76146Q67.12813 179.46458 67.84688 179.46458Q68.58125 179.46458 69.06563 178.76146Q69.56563 178.05833 69.56563 175.94896Q69.56563 173.82396 69.06563 173.13646Q68.58125 172.43333 67.83125 172.43333Q67.1125 172.43333 66.675 173.04271Q66.12813 173.82396 66.12813 175.94896ZM72.05 175.94896Q72.05 174.41771 72.3625 173.49583Q72.675 172.55833 73.28438 172.05833Q73.90938 171.55833 74.84688 171.55833Q75.53438 171.55833 76.05 171.83958Q76.58125 172.12083 76.925 172.65208Q77.26875 173.16771 77.45625 173.91771Q77.64375 174.66771 77.64375 175.94896Q77.64375 177.46458 77.33125 178.38646Q77.03438 179.30833 76.40938 179.82396Q75.8 180.32396 74.84688 180.32396Q73.6125 180.32396 72.89375 179.43333Q72.05 178.37083 72.05 175.94896ZM73.12813 175.94896Q73.12813 178.05833 73.62813 178.76146Q74.12813 179.46458 74.84688 179.46458Q75.58125 179.46458 76.06563 178.76146Q76.56563 178.05833 76.56563 175.94896Q76.56563 173.82396 76.06563 173.13646Q75.58125 172.43333 74.83125 172.43333Q74.1125 172.43333 73.675 173.04271Q73.12813 173.82396 73.12813 175.94896ZM79.05 175.94896Q79.05 174.41771 79.3625 173.49583Q79.675 172.55833 80.28438 172.05833Q80.90938 171.55833 81.84688 171.55833Q82.53438 171.55833 83.05 171.83958Q83.58125 172.12083 83.925 172.65208Q84.26875 173.16771 84.45625 173.91771Q84.64375 174.66771 84.64375 175.94896Q84.64375 177.46458 84.33125 178.38646Q84.03438 179.30833 83.40938 179.82396Q82.8 180.32396 81.84688 180.32396Q80.6125 180.32396 79.89375 179.43333Q79.05 178.37083 79.05 175.94896ZM80.12813 175.94896Q80.12813 178.05833 80.62813 178.76146Q81.12813 179.46458 81.84688 179.46458Q82.58125 179.46458 83.06563 178.76146Q83.56563 178.05833 83.56563 175.94896Q83.56563 173.82396 83.06563 173.13646Q82.58125 172.43333 81.83125 172.43333Q81.1125 172.43333 80.675 173.04271Q80.12813 173.82396 80.12813 175.94896ZM86.05 175.94896Q86.05 174.41771 86.3625 173.49583Q86.675 172.55833 87.28438 172.05833Q87.90938 171.55833 88.84688 171.55833Q89.53438 171.55833 90.05 171.83958Q90.58125 172.12083 90.925 172.65208Q91.26875 173.16771 91.45625 173.91771Q91.64375 174.66771 91.64375 175.94896Q91.64375 177.46458 91.33125 178.38646Q91.03438 179.30833 90.40938 179.82396Q89.8 180.32396 88.84688 180.32396Q87.6125 180.32396 86.89375 179.43333Q86.05 178.37083 86.05 175.94896ZM87.12813 175.94896Q87.12813 178.05833 87.62813 178.76146Q88.12813 179.46458 88.84688 179.46458Q89.58125 179.46458 90.06563 178.76146Q90.56563 178.05833 90.56563 175.94896Q90.56563 173.82396 90.06563 173.13646Q89.58125 172.43333 88.83125 172.43333Q88.1125 172.43333 87.675 173.04271Q87.12813 173.82396 87.12813 175.94896ZM93.05 175.94896Q93.05 174.41771 93.3625 173.49583Q93.675 172.55833 94.28438 172.05833Q94.90938 171.55833 95.84688 171.55833Q96.53438 171.55833 97.05 171.83958Q97.58125 172.12083 97.925 172.65208Q98.26875 173.16771 98.45625 173.91771Q98.64375 174.66771 98.64375 175.94896Q98.64375 177.46458 98.33125 178.38646Q98.03438 179.30833 97.40938 179.82396Q96.8 180.32396 95.84688 180.32396Q94.6125 180.32396 93.89375 179.43333Q93.05 178.37083 93.05 175.94896ZM94.12813 175.94896Q94.12813 178.05833 94.62813 178.76146Q95.12813 179.46458 95.84688 179.46458Q96.58125 179.46458 97.06563 178.76146Q97.56563 178.05833 97.56563 175.94896Q97.56563 173.82396 97.06563 173.13646Q96.58125 172.43333 95.83125 172.43333Q95.1125 172.43333 94.675 173.04271Q94.12813 173.82396 94.12813 175.94896Z" fill-rule="nonzero"/><path fill="#000000" d="M55.01875 118.05L53.971874 118.05L53.971874 111.33125Q53.58125 111.69063 52.95625 112.06563Q52.346874 112.425 51.8625 112.59688L51.8625 111.58125Q52.7375 111.15938 53.39375 110.58125Q54.065624 109.9875 54.346874 109.425L55.01875 109.425L55.01875 118.05ZM58.05 115.8L59.159374 115.70625Q59.284374 116.51875 59.721874 116.925Q60.175 117.33125 60.815624 117.33125Q61.565624 117.33125 62.096874 116.75313Q62.628124 116.175 62.628124 115.2375Q62.628124 114.33125 62.1125 113.81563Q61.6125 113.28438 60.784374 113.28438Q60.284374 113.28438 59.8625 113.51875Q59.45625 113.75313 59.221874 114.1125L58.2375 113.9875L59.065624 109.58125L63.346874 109.58125L63.346874 110.58125L59.909374 110.58125L59.45625 112.89375Q60.221874 112.34688 61.065624 112.34688Q62.190624 112.34688 62.95625 113.12813Q63.7375 113.90938 63.7375 115.14375Q63.7375 116.3 63.065624 117.15938Q62.2375 118.19063 60.815624 118.19063Q59.64375 118.19063 58.89375 117.53438Q58.159374 116.87813 58.05 115.8ZM65.05 113.81563Q65.05 112.28438 65.3625 111.3625Q65.675 110.425 66.28438 109.925Q66.90938 109.425 67.84688 109.425Q68.53438 109.425 69.05 109.70625Q69.58125 109.9875 69.925 110.51875Q70.26875 111.03438 70.45625 111.78438Q70.64375 112.53438 70.64375 113.81563Q70.64375 115.33125 70.33125 116.25313Q70.03438 117.175 69.40938 117.69063Q68.8 118.19063 67.84688 118.19063Q66.6125 118.19063 65.89375 117.3Q65.05 116.2375 65.05 113.81563ZM66.12813 113.81563Q66.12813 115.925 66.62813 116.62813Q67.12813 117.33125 67.84688 117.33125Q68.58125 117.33125 69.06563 116.62813Q69.56563 115.925 69.56563 113.81563Q69.56563 111.69063 69.06563 111.00313Q68.58125 110.3 67.83125 110.3Q67.1125 110.3 66.675 110.90938Q66.12813 111.69063 66.12813 113.81563ZM72.05 113.81563Q72.05 112.28438 72.3625 111.3625Q72.675 110.425 73.28438 109.925Q73.90938 109.425 74.84688 109.425Q75.53438 109.425 76.05 109.70625Q76.58125 109.9875 76.925 110.51875Q77.26875 111.03438 77.45625 111.78438Q77.64375 112.53438 77.64375 113.81563Q77.64375 115.33125 77.33125 116.25313Q77.03438 117.175 76.40938 117.69063Q75.8 118.19063 74.84688 118.19063Q73.6125 118.19063 72.89375 117.3Q72.05 116.2375 72.05 113.81563ZM73.12813 113.81563Q73.12813 115.925 73.62813 116.62813Q74.12813 117.33125 74.84688 117.33125Q75.58125 117.33125 76.06563 116.62813Q76.56563 115.925 76.56563 113.81563Q76.56563 111.69063 76.06563 111.00313Q75.58125 110.3 74.83125 110.3Q74.1125 110.3 73.675 110.90938Q73.12813 111.69063 73.12813 113.81563ZM79.05 113.81563Q79.05 112.28438 79.3625 111.3625Q79.675 110.425 80.28438 109.925Q80.90938 109.425 81.84688 109.425Q82.53438 109.425 83.05 109.70625Q83.58125 109.9875 83.925 110.51875Q84.26875 111.03438 84.45625 111.78438Q84.64375 112.53438 84.64375 113.81563Q84.64375 115.33125 84.33125 116.25313Q84.03438 117.175 83.40938 117.69063Q82.8 118.19063 81.84688 118.19063Q80.6125 118.19063 79.89375 117.3Q79.05 116.2375 79.05 113.81563ZM80.12813 113.81563Q80.12813 115.925 80.62813 116.62813Q81.12813 117.33125 81.84688 117.33125Q82.58125 117.33125 83.06563 116.62813Q83.56563 115.925 83.56563 113.81563Q83.56563 111.69063 83.06563 111.00313Q82.58125 110.3 81.83125 110.3Q81.1125 110.3 80.675 110.90938Q80.12813 111.69063 80.12813 113.81563ZM86.05 113.81563Q86.05 112.28438 86.3625 111.3625Q86.675 110.425 87.28438 109.925Q87.90938 109.425 88.84688 109.425Q89.53438 109.425 90.05 109.70625Q90.58125 109.9875 90.925 110.51875Q91.26875 111.03438 91.45625 111.78438Q91.64375 112.53438 91.64375 113.81563Q91.64375 115.33125 91.33125 116.25313Q91.03438 117.175 90.40938 117.69063Q89.8 118.19063 88.84688 118.19063Q87.6125 118.19063 86.89375 117.3Q86.05 116.2375 86.05 113.81563ZM87.12813 113.81563Q87.12813 115.925 87.62813 116.62813Q88.12813 117.33125 88.84688 117.33125Q89.58125 117.33125 90.06563 116.62813Q90.56563 115.925 90.56563 113.81563Q90.56563 111.69063 90.06563 111.00313Q89.58125 110.3 88.83125 110.3Q88.1125 110.3 87.675 110.90938Q87.12813 111.69063 87.12813 113.81563ZM93.05 113.81563Q93.05 112.28438 93.3625 111.3625Q93.675 110.425 94.28438 109.925Q94.90938 109.425 95.84688 109.425Q96.53438 109.425 97.05 109.70625Q97.58125 109.9875 97.925 110.51875Q98.26875 111.03438 98.45625 111.78438Q98.64375 112.53438 98.64375 113.81563Q98.64375 115.33125 98.33125 116.25313Q98.03438 117.175 97.40938 117.69063Q96.8 118.19063 95.84688 118.19063Q94.6125 118.19063 93.89375 117.3Q93.05 116.2375 93.05 113.81563ZM94.12813 113.81563Q94.12813 115.925 94.62813 116.62813Q95.12813 117.33125 95.84688 117.33125Q96.58125 117.33125 97.06563 116.62813Q97.56563 115.925 97.56563 113.81563Q97.56563 111.69063 97.06563 111.00313Q96.58125 110.3 95.83125 110.3Q95.1125 110.3 94.675 110.90938Q94.12813 111.69063 94.12813 113.81563Z" fill-rule="nonzero"/><path fill="#000000" d="M56.596874 54.901043L56.596874 55.916668L50.909374 55.916668Q50.909374 55.541668 51.034374 55.182293Q51.253124 54.604168 51.721874 54.041668Q52.20625 53.479168 53.1125 52.744793Q54.51875 51.588543 55.003124 50.916668Q55.503124 50.244793 55.503124 49.651043Q55.503124 49.026043 55.05 48.604168Q54.596874 48.166668 53.878124 48.166668Q53.1125 48.166668 52.659374 48.619793Q52.20625 49.072918 52.190624 49.885418L51.1125 49.776043Q51.221874 48.557293 51.940624 47.932293Q52.675 47.291668 53.909374 47.291668Q55.14375 47.291668 55.8625 47.979168Q56.58125 48.666668 56.58125 49.682293Q56.58125 50.197918 56.3625 50.697918Q56.159374 51.182293 55.659374 51.744793Q55.175 52.291668 54.05 53.244793Q53.096874 54.041668 52.815624 54.338543Q52.55 54.619793 52.378124 54.901043L56.596874 54.901043ZM58.05 51.682293Q58.05 50.151043 58.3625 49.229168Q58.675 48.291668 59.284374 47.791668Q59.909374 47.291668 60.846874 47.291668Q61.534374 47.291668 62.05 47.572918Q62.58125 47.854168 62.925 48.385418Q63.26875 48.901043 63.45625 49.651043Q63.64375 50.401043 63.64375 51.682293Q63.64375 53.197918 63.33125 54.119793Q63.034374 55.041668 62.409374 55.557293Q61.8 56.057293 60.846874 56.057293Q59.6125 56.057293 58.89375 55.166668Q58.05 54.104168 58.05 51.682293ZM59.128124 51.682293Q59.128124 53.791668 59.628124 54.494793Q60.128124 55.197918 60.846874 55.197918Q61.58125 55.197918 62.065624 54.494793Q62.565624 53.791668 62.565624 51.682293Q62.565624 49.557293 62.065624 48.869793Q61.58125 48.166668 60.83125 48.166668Q60.1125 48.166668 59.675 48.776043Q59.128124 49.557293 59.128124 51.682293ZM65.05 51.682293Q65.05 50.151043 65.3625 49.229168Q65.675 48.291668 66.28438 47.791668Q66.90938 47.291668 67.84688 47.291668Q68.53438 47.291668 69.05 47.572918Q69.58125 47.854168 69.925 48.385418Q70.26875 48.901043 70.45625 49.651043Q70.64375 50.401043 70.64375 51.682293Q70.64375 53.197918 70.33125 54.119793Q70.03438 55.041668 69.40938 55.557293Q68.8 56.057293 67.84688 56.057293Q66.6125 56.057293 65.89375 55.166668Q65.05 54.104168 65.05 51.682293ZM66.12813 51.682293Q66.12813 53.791668 66.62813 54.494793Q67.12813 55.197918 67.84688 55.197918Q68.58125 55.197918 69.06563 54.494793Q69.56563 53.791668 69.56563 51.682293Q69.56563 49.557293 69.06563 48.869793Q68.58125 48.166668 67.83125 48.166668Q67.1125 48.166668 66.675 48.776043Q66.12813 49.557293 66.12813 51.682293ZM72.05 51.682293Q72.05 50.151043 72.3625 49.229168Q72.675 48.291668 73.28438 47.791668Q73.90938 47.291668 74.84688 47.291668Q75.53438 47.291668 76.05 47.572918Q76.58125 47.854168 76.925 48.385418Q77.26875 48.901043 77.45625 49.651043Q77.64375 50.401043 77.64375 51.682293Q77.64375 53.197918 77.33125 54.119793Q77.03438 55.041668 76.40938 55.557293Q75.8 56.057293 74.84688 56.057293Q73.6125 56.057293 72.89375 55.166668Q72.05 54.104168 72.05 51.682293ZM73.12813 51.682293Q73.12813 53.791668 73.62813 54.494793Q74.12813 55.197918 74.84688 55.197918Q75.58125 55.197918 76.06563 54.494793Q76.56563 53.791668 76.56563 51.682293Q76.56563 49.557293 76.06563 48.869793Q75.58125 48.166668 74.83125 48.166668Q74.1125 48.166668 73.675 48.776043Q73.12813 49.557293 73.12813 51.682293ZM79.05 51.682293Q79.05 50.151043 79.3625 49.229168Q79.675 48.291668 80.28438 47.791668Q80.90938 47.291668 81.84688 47.291668Q82.53438 47.291668 83.05 47.572918Q83.58125 47.854168 83.925 48.385418Q84.26875 48.901043 84.45625 49.651043Q84.64375 50.401043 84.64375 51.682293Q84.64375 53.197918 84.33125 54.119793Q84.03438 55.041668 83.40938 55.557293Q82.8 56.057293 81.84688 56.057293Q80.6125 56.057293 79.89375 55.166668Q79.05 54.104168 79.05 51.682293ZM80.12813 51.682293Q80.12813 53.791668 80.62813 54.494793Q81.12813 55.197918 81.84688 55.197918Q82.58125 55.197918 83.06563 54.494793Q83.56563 53.791668 83.56563 51.682293Q83.56563 49.557293 83.06563 48.869793Q82.58125 48.166668 81.83125 48.166668Q81.1125 48.166668 80.675 48.776043Q80.12813 49.557293 80.12813 51.682293ZM86.05 51.682293Q86.05 50.151043 86.3625 49.229168Q86.675 48.291668 87.28438 47.791668Q87.90938 47.291668 88.84688 47.291668Q89.53438 47.291668 90.05 47.572918Q90.58125 47.854168 90.925 48.385418Q91.26875 48.901043 91.45625 49.651043Q91.64375 50.401043 91.64375 51.682293Q91.64375 53.197918 91.33125 54.119793Q91.03438 55.041668 90.40938 55.557293Q89.8 56.057293 88.84688 56.057293Q87.6125 56.057293 86.89375 55.166668Q86.05 54.104168 86.05 51.682293ZM87.12813 51.682293Q87.12813 53.791668 87.62813 54.494793Q88.12813 55.197918 88.84688 55.197918Q89.58125 55.197918 90.06563 54.494793Q90.56563 53.791668 90.56563 51.682293Q90.56563 49.557293 90.06563 48.869793Q89.58125 48.166668 88.83125 48.166668Q88.1125 48.166668 87.675 48.776043Q87.12813 49.557293 87.12813 51.682293ZM93.05 51.682293Q93.05 50.151043 93.3625 49.229168Q93.675 48.291668 94.28438 47.791668Q94.90938 47.291668 95.84688 47.291668Q96.53438 47.291668 97.05 47.572918Q97.58125 47.854168 97.925 48.385418Q98.26875 48.901043 98.45625 49.651043Q98.64375 50.401043 98.64375 51.682293Q98.64375 53.197918 98.33125 54.119793Q98.03438 55.041668 97.40938 55.557293Q96.8 56.057293 95.84688 56.057293Q94.6125 56.057293 93.89375 55.166668Q93.05 54.104168 93.05 51.682293ZM94.12813 51.682293Q94.12813 53.791668 94.62813 54.494793Q95.12813 55.197918 95.84688 55.197918Q96.58125 55.197918 97.06563 54.494793Q97.56563 53.791668 97.56563 51.682293Q97.56563 49.557293 97.06563 48.869793Q96.58125 48.166668 95.83125 48.166668Q95.1125 48.166668 94.675 48.776043Q94.12813 49.557293 94.12813 51.682293Z" fill-rule="nonzero"/><path fill="#000000" d="M92.51875 317.45L91.47188 317.45L91.47188 310.73126Q91.08125 311.09064 90.45625 311.46564Q89.84688 311.825 89.3625 311.9969L89.3625 310.98126Q90.2375 310.5594 90.89375 309.98126Q91.56563 309.3875 91.84688 308.825L92.51875 308.825L92.51875 317.45ZM95.55 313.21564Q95.55 311.6844 95.8625 310.7625Q96.175 309.825 96.78438 309.325Q97.40938 308.825 98.34688 308.825Q99.03438 308.825 99.55 309.10626Q100.08125 309.3875 100.425 309.91876Q100.76875 310.4344 100.95625 311.1844Q101.14375 311.9344 101.14375 313.21564Q101.14375 314.73126 100.83125 315.65314Q100.53438 316.575 99.90938 317.09064Q99.3 317.59064 98.34688 317.59064Q97.1125 317.59064 96.39375 316.7Q95.55 315.6375 95.55 313.21564ZM96.62813 313.21564Q96.62813 315.325 97.12813 316.02814Q97.62813 316.73126 98.34688 316.73126Q99.08125 316.73126 99.56563 316.02814Q100.06563 315.325 100.06563 313.21564Q100.06563 311.09064 99.56563 310.40314Q99.08125 309.7 98.33125 309.7Q97.6125 309.7 97.175 310.3094Q96.62813 311.09064 96.62813 313.21564ZM102.55 313.21564Q102.55 311.6844 102.8625 310.7625Q103.175 309.825 103.78438 309.325Q104.40938 308.825 105.34688 308.825Q106.03438 308.825 106.55 309.10626Q107.08125 309.3875 107.425 309.91876Q107.76875 310.4344 107.95625 311.1844Q108.14375 311.9344 108.14375 313.21564Q108.14375 314.73126 107.83125 315.65314Q107.53438 316.575 106.90938 317.09064Q106.3 317.59064 105.34688 317.59064Q104.1125 317.59064 103.39375 316.7Q102.55 315.6375 102.55 313.21564ZM103.62813 313.21564Q103.62813 315.325 104.12813 316.02814Q104.62813 316.73126 105.34688 316.73126Q106.08125 316.73126 106.56563 316.02814Q107.06563 315.325 107.06563 313.21564Q107.06563 311.09064 106.56563 310.40314Q106.08125 309.7 105.33125 309.7Q104.6125 309.7 104.175 310.3094Q103.62813 311.09064 103.62813 313.21564ZM109.55 313.21564Q109.55 311.6844 109.8625 310.7625Q110.175 309.825 110.78438 309.325Q111.40938 308.825 112.34688 308.825Q113.03438 308.825 113.55 309.10626Q114.08125 309.3875 114.425 309.91876Q114.76875 310.4344 114.95625 311.1844Q115.14375 311.9344 115.14375 313.21564Q115.14375 314.73126 114.83125 315.65314Q114.53438 316.575 113.90938 317.09064Q113.3 317.59064 112.34688 317.59064Q111.1125 317.59064 110.39375 316.7Q109.55 315.6375 109.55 313.21564ZM110.62813 313.21564Q110.62813 315.325 111.12813 316.02814Q111.62813 316.73126 112.34688 316.73126Q113.08125 316.73126 113.56563 316.02814Q114.06563 315.325 114.06563 313.21564Q114.06563 311.09064 113.56563 310.40314Q113.08125 309.7 112.33125 309.7Q111.6125 309.7 111.175 310.3094Q110.62813 311.09064 110.62813 313.21564ZM116.55 313.21564Q116.55 311.6844 116.8625 310.7625Q117.175 309.825 117.78438 309.325Q118.40938 308.825 119.34688 308.825Q120.03438 308.825 120.55 309.10626Q121.08125 309.3875 121.425 309.91876Q121.76875 310.4344 121.95625 311.1844Q122.14375 311.9344 122.14375 313.21564Q122.14375 314.73126 121.83125 315.65314Q121.53438 316.575 120.90938 317.09064Q120.3 317.59064 119.34688 317.59064Q118.1125 317.59064 117.39375 316.7Q116.55 315.6375 116.55 313.21564ZM117.62813 313.21564Q117.62813 315.325 118.12813 316.02814Q118.62813 316.73126 119.34688 316.73126Q120.08125 316.73126 120.56563 316.02814Q121.06563 315.325 121.06563 313.21564Q121.06563 311.09064 120.56563 310.40314Q120.08125 309.7 119.33125 309.7Q118.6125 309.7 118.175 310.3094Q117.62813 311.09064 117.62813 313.21564Z" fill-rule="nonzero"/><path fill="#000000" d="M189.27687 316.4344L189.27687 317.45L183.58937 317.45Q183.58937 317.075 183.71437 316.71564Q183.93312 316.1375 184.40187 315.575Q184.88625 315.0125 185.7925 314.27814Q187.19875 313.1219 187.68312 312.45Q188.18312 311.77814 188.18312 311.1844Q188.18312 310.5594 187.73 310.1375Q187.27687 309.7 186.55812 309.7Q185.7925 309.7 185.33937 310.15314Q184.88625 310.60626 184.87062 311.41876L183.7925 311.3094Q183.90187 310.09064 184.62062 309.46564Q185.355 308.825 186.58937 308.825Q187.82375 308.825 188.5425 309.5125Q189.26125 310.2 189.26125 311.21564Q189.26125 311.73126 189.0425 312.23126Q188.83937 312.71564 188.33937 313.27814Q187.855 313.825 186.73 314.77814Q185.77687 315.575 185.49562 315.8719Q185.23 316.15314 185.05812 316.4344L189.27687 316.4344ZM190.73 313.21564Q190.73 311.6844 191.0425 310.7625Q191.355 309.825 191.96437 309.325Q192.58937 308.825 193.52687 308.825Q194.21437 308.825 194.73 309.10626Q195.26125 309.3875 195.605 309.91876Q195.94875 310.4344 196.13625 311.1844Q196.32375 311.9344 196.32375 313.21564Q196.32375 314.73126 196.01125 315.65314Q195.71437 316.575 195.08937 317.09064Q194.48 317.59064 193.52687 317.59064Q192.2925 317.59064 191.57375 316.7Q190.73 315.6375 190.73 313.21564ZM191.80812 313.21564Q191.80812 315.325 192.30812 316.02814Q192.80812 316.73126 193.52687 316.73126Q194.26125 316.73126 194.74562 316.02814Q195.24562 315.325 195.24562 313.21564Q195.24562 311.09064 194.74562 310.40314Q194.26125 309.7 193.51125 309.7Q192.7925 309.7 192.355 310.3094Q191.80812 311.09064 191.80812 313.21564ZM197.73 313.21564Q197.73 311.6844 198.0425 310.7625Q198.355 309.825 198.96437 309.325Q199.58937 308.825 200.52687 308.825Q201.21437 308.825 201.73 309.10626Q202.26125 309.3875 202.605 309.91876Q202.94875 310.4344 203.13625 311.1844Q203.32375 311.9344 203.32375 313.21564Q203.32375 314.73126 203.01125 315.65314Q202.71437 316.575 202.08937 317.09064Q201.48 317.59064 200.52687 317.59064Q199.2925 317.59064 198.57375 316.7Q197.73 315.6375 197.73 313.21564ZM198.80812 313.21564Q198.80812 315.325 199.30812 316.02814Q199.80812 316.73126 200.52687 316.73126Q201.26125 316.73126 201.74562 316.02814Q202.24562 315.325 202.24562 313.21564Q202.24562 311.09064 201.74562 310.40314Q201.26125 309.7 200.51125 309.7Q199.7925 309.7 199.355 310.3094Q198.80812 311.09064 198.80812 313.21564ZM204.73 313.21564Q204.73 311.6844 205.0425 310.7625Q205.355 309.825 205.96437 309.325Q206.58937 308.825 207.52687 308.825Q208.21437 308.825 208.73 309.10626Q209.26125 309.3875 209.605 309.91876Q209.94875 310.4344 210.13625 311.1844Q210.32375 311.9344 210.32375 313.21564Q210.32375 314.73126 210.01125 315.65314Q209.71437 316.575 209.08937 317.09064Q208.48 317.59064 207.52687 317.59064Q206.2925 317.59064 205.57375 316.7Q204.73 315.6375 204.73 313.21564ZM205.80812 313.21564Q205.80812 315.325 206.30812 316.02814Q206.80812 316.73126 207.52687 316.73126Q208.26125 316.73126 208.74562 316.02814Q209.24562 315.325 209.24562 313.21564Q209.24562 311.09064 208.74562 310.40314Q208.26125 309.7 207.51125 309.7Q206.7925 309.7 206.355 310.3094Q205.80812 311.09064 205.80812 313.21564ZM211.73 313.21564Q211.73 311.6844 212.0425 310.7625Q212.355 309.825 212.96437 309.325Q213.58937 308.825 214.52687 308.825Q215.21437 308.825 215.73 309.10626Q216.26125 309.3875 216.605 309.91876Q216.94875 310.4344 217.13625 311.1844Q217.32375 311.9344 217.32375 313.21564Q217.32375 314.73126 217.01125 315.65314Q216.71437 316.575 216.08937 317.09064Q215.48 317.59064 214.52687 317.59064Q213.2925 317.59064 212.57375 316.7Q211.73 315.6375 211.73 313.21564ZM212.80812 313.21564Q212.80812 315.325 213.30812 316.02814Q213.80812 316.73126 214.52687 316.73126Q215.26125 316.73126 215.74562 316.02814Q216.24562 315.325 216.24562 313.21564Q216.24562 311.09064 215.74562 310.40314Q215.26125 309.7 214.51125 309.7Q213.7925 309.7 213.355 310.3094Q212.80812 311.09064 212.80812 313.21564Z" fill-rule="nonzero"/><path fill="#000000" d="M278.91 315.1844L279.9725 315.04376Q280.14438 315.9344 280.58188 316.34064Q281.01938 316.73126 281.64438 316.73126Q282.39438 316.73126 282.91 316.21564Q283.42563 315.7 283.42563 314.9344Q283.42563 314.21564 282.94125 313.7469Q282.4725 313.2625 281.73813 313.2625Q281.44125 313.2625 280.98813 313.3875L281.11313 312.45Q281.2225 312.46564 281.285 312.46564Q281.95688 312.46564 282.48813 312.1219Q283.035 311.7625 283.035 311.02814Q283.035 310.45 282.64438 310.075Q282.25375 309.6844 281.62875 309.6844Q281.01938 309.6844 280.5975 310.075Q280.19125 310.46564 280.08188 311.23126L279.01938 311.04376Q279.20688 309.9969 279.89438 309.41876Q280.58188 308.825 281.5975 308.825Q282.30063 308.825 282.89438 309.1375Q283.48813 309.4344 283.80063 309.95Q284.11313 310.46564 284.11313 311.0594Q284.11313 311.60626 283.81625 312.075Q283.51938 312.52814 282.94125 312.79376Q283.69125 312.96564 284.11313 313.52814Q284.535 314.075 284.535 314.91876Q284.535 316.04376 283.70688 316.825Q282.89438 317.60626 281.64438 317.60626Q280.51938 317.60626 279.76938 316.9344Q279.01938 316.2469 278.91 315.1844ZM285.91 313.21564Q285.91 311.6844 286.2225 310.7625Q286.535 309.825 287.14438 309.325Q287.76938 308.825 288.70688 308.825Q289.39438 308.825 289.91 309.10626Q290.44125 309.3875 290.785 309.91876Q291.12875 310.4344 291.31625 311.1844Q291.50375 311.9344 291.50375 313.21564Q291.50375 314.73126 291.19125 315.65314Q290.89438 316.575 290.26938 317.09064Q289.66 317.59064 288.70688 317.59064Q287.4725 317.59064 286.75375 316.7Q285.91 315.6375 285.91 313.21564ZM286.98813 313.21564Q286.98813 315.325 287.48813 316.02814Q287.98813 316.73126 288.70688 316.73126Q289.44125 316.73126 289.92563 316.02814Q290.42563 315.325 290.42563 313.21564Q290.42563 311.09064 289.92563 310.40314Q289.44125 309.7 288.69125 309.7Q287.9725 309.7 287.535 310.3094Q286.98813 311.09064 286.98813 313.21564ZM292.91 313.21564Q292.91 311.6844 293.2225 310.7625Q293.535 309.825 294.14438 309.325Q294.76938 308.825 295.70688 308.825Q296.39438 308.825 296.91 309.10626Q297.44125 309.3875 297.785 309.91876Q298.12875 310.4344 298.31625 311.1844Q298.50375 311.9344 298.50375 313.21564Q298.50375 314.73126 298.19125 315.65314Q297.89438 316.575 297.26938 317.09064Q296.66 317.59064 295.70688 317.59064Q294.4725 317.59064 293.75375 316.7Q292.91 315.6375 292.91 313.21564ZM293.98813 313.21564Q293.98813 315.325 294.48813 316.02814Q294.98813 316.73126 295.70688 316.73126Q296.44125 316.73126 296.92563 316.02814Q297.42563 315.325 297.42563 313.21564Q297.42563 311.09064 296.92563 310.40314Q296.44125 309.7 295.69125 309.7Q294.9725 309.7 294.535 310.3094Q293.98813 311.09064 293.98813 313.21564ZM299.91 313.21564Q299.91 311.6844 300.2225 310.7625Q300.535 309.825 301.14438 309.325Q301.76938 308.825 302.70688 308.825Q303.39438 308.825 303.91 309.10626Q304.44125 309.3875 304.785 309.91876Q305.12875 310.4344 305.31625 311.1844Q305.50375 311.9344 305.50375 313.21564Q305.50375 314.73126 305.19125 315.65314Q304.89438 316.575 304.26938 317.09064Q303.66 317.59064 302.70688 317.59064Q301.4725 317.59064 300.75375 316.7Q299.91 315.6375 299.91 313.21564ZM300.98813 313.21564Q300.98813 315.325 301.48813 316.02814Q301.98813 316.73126 302.70688 316.73126Q303.44125 316.73126 303.92563 316.02814Q304.42563 315.325 304.42563 313.21564Q304.42563 311.09064 303.92563 310.40314Q303.44125 309.7 302.69125 309.7Q301.9725 309.7 301.535 310.3094Q300.98813 311.09064 300.98813 313.21564ZM306.91 313.21564Q306.91 311.6844 307.2225 310.7625Q307.535 309.825 308.14438 309.325Q308.76938 308.825 309.70688 308.825Q310.39438 308.825 310.91 309.10626Q311.44125 309.3875 311.785 309.91876Q312.12875 310.4344 312.31625 311.1844Q312.50375 311.9344 312.50375 313.21564Q312.50375 314.73126 312.19125 315.65314Q311.89438 316.575 311.26938 317.09064Q310.66 317.59064 309.70688 317.59064Q308.4725 317.59064 307.75375 316.7Q306.91 315.6375 306.91 313.21564ZM307.98813 313.21564Q307.98813 315.325 308.48813 316.02814Q308.98813 316.73126 309.70688 316.73126Q310.44125 316.73126 310.92563 316.02814Q311.42563 315.325 311.42563 313.21564Q311.42563 311.09064 310.92563 310.40314Q310.44125 309.7 309.69125 309.7Q308.9725 309.7 308.535 310.3094Q307.98813 311.09064 307.98813 313.21564Z" fill-rule="nonzero"/><path fill="#000000" d="M377.465 317.45L377.465 315.3875L373.74625 315.3875L373.74625 314.41876L377.66812 308.85626L378.5275 308.85626L378.5275 314.41876L379.68375 314.41876L379.68375 315.3875L378.5275 315.3875L378.5275 317.45L377.465 317.45ZM377.465 314.41876L377.465 310.5594L374.7775 314.41876L377.465 314.41876ZM381.09 313.21564Q381.09 311.6844 381.4025 310.7625Q381.715 309.825 382.32437 309.325Q382.94937 308.825 383.88687 308.825Q384.57437 308.825 385.09 309.10626Q385.62125 309.3875 385.965 309.91876Q386.30875 310.4344 386.49625 311.1844Q386.68375 311.9344 386.68375 313.21564Q386.68375 314.73126 386.37125 315.65314Q386.07437 316.575 385.44937 317.09064Q384.84 317.59064 383.88687 317.59064Q382.6525 317.59064 381.93375 316.7Q381.09 315.6375 381.09 313.21564ZM382.16812 313.21564Q382.16812 315.325 382.66812 316.02814Q383.16812 316.73126 383.88687 316.73126Q384.62125 316.73126 385.10562 316.02814Q385.60562 315.325 385.60562 313.21564Q385.60562 311.09064 385.10562 310.40314Q384.62125 309.7 383.87125 309.7Q383.1525 309.7 382.715 310.3094Q382.16812 311.09064 382.16812 313.21564ZM388.09 313.21564Q388.09 311.6844 388.4025 310.7625Q388.715 309.825 389.32437 309.325Q389.94937 308.825 390.88687 308.825Q391.57437 308.825 392.09 309.10626Q392.62125 309.3875 392.965 309.91876Q393.30875 310.4344 393.49625 311.1844Q393.68375 311.9344 393.68375 313.21564Q393.68375 314.73126 393.37125 315.65314Q393.07437 316.575 392.44937 317.09064Q391.84 317.59064 390.88687 317.59064Q389.6525 317.59064 388.93375 316.7Q388.09 315.6375 388.09 313.21564ZM389.16812 313.21564Q389.16812 315.325 389.66812 316.02814Q390.16812 316.73126 390.88687 316.73126Q391.62125 316.73126 392.10562 316.02814Q392.60562 315.325 392.60562 313.21564Q392.60562 311.09064 392.10562 310.40314Q391.62125 309.7 390.87125 309.7Q390.1525 309.7 389.715 310.3094Q389.16812 311.09064 389.16812 313.21564ZM395.09 313.21564Q395.09 311.6844 395.4025 310.7625Q395.715 309.825 396.32437 309.325Q396.94937 308.825 397.88687 308.825Q398.57437 308.825 399.09 309.10626Q399.62125 309.3875 399.965 309.91876Q400.30875 310.4344 400.49625 311.1844Q400.68375 311.9344 400.68375 313.21564Q400.68375 314.73126 400.37125 315.65314Q400.07437 316.575 399.44937 317.09064Q398.84 317.59064 397.88687 317.59064Q396.6525 317.59064 395.93375 316.7Q395.09 315.6375 395.09 313.21564ZM396.16812 313.21564Q396.16812 315.325 396.66812 316.02814Q397.16812 316.73126 397.88687 316.73126Q398.62125 316.73126 399.10562 316.02814Q399.60562 315.325 399.60562 313.21564Q399.60562 311.09064 399.10562 310.40314Q398.62125 309.7 397.87125 309.7Q397.1525 309.7 396.715 310.3094Q396.16812 311.09064 396.16812 313.21564ZM402.09 313.21564Q402.09 311.6844 402.4025 310.7625Q402.715 309.825 403.32437 309.325Q403.94937 308.825 404.88687 308.825Q405.57437 308.825 406.09 309.10626Q406.62125 309.3875 406.965 309.91876Q407.30875 310.4344 407.49625 311.1844Q407.68375 311.9344 407.68375 313.21564Q407.68375 314.73126 407.37125 315.65314Q407.07437 316.575 406.44937 317.09064Q405.84 317.59064 404.88687 317.59064Q403.6525 317.59064 402.93375 316.7Q402.09 315.6375 402.09 313.21564ZM403.16812 313.21564Q403.16812 315.325 403.66812 316.02814Q404.16812 316.73126 404.88687 316.73126Q405.62125 316.73126 406.10562 316.02814Q406.60562 315.325 406.60562 313.21564Q406.60562 311.09064 406.10562 310.40314Q405.62125 309.7 404.87125 309.7Q404.1525 309.7 403.715 310.3094Q403.16812 311.09064 403.16812 313.21564Z" fill-rule="nonzero"/><path fill="#000000" d="M469.27 315.2L470.37936 315.10626Q470.50436 315.91876 470.94186 316.325Q471.395 316.73126 472.0356 316.73126Q472.7856 316.73126 473.31686 316.15314Q473.8481 315.575 473.8481 314.6375Q473.8481 313.73126 473.3325 313.21564Q472.8325 312.6844 472.00436 312.6844Q471.50436 312.6844 471.0825 312.91876Q470.67624 313.15314 470.44186 313.5125L469.4575 313.3875L470.2856 308.98126L474.56686 308.98126L474.56686 309.98126L471.12936 309.98126L470.67624 312.29376Q471.44186 311.7469 472.2856 311.7469Q473.4106 311.7469 474.17624 312.52814Q474.9575 313.3094 474.9575 314.54376Q474.9575 315.7 474.2856 316.5594Q473.4575 317.59064 472.0356 317.59064Q470.86374 317.59064 470.11374 316.9344Q469.37936 316.27814 469.27 315.2ZM476.27 313.21564Q476.27 311.6844 476.5825 310.7625Q476.895 309.825 477.50436 309.325Q478.12936 308.825 479.06686 308.825Q479.75436 308.825 480.27 309.10626Q480.80124 309.3875 481.145 309.91876Q481.48874 310.4344 481.67624 311.1844Q481.86374 311.9344 481.86374 313.21564Q481.86374 314.73126 481.55124 315.65314Q481.25436 316.575 480.62936 317.09064Q480.02 317.59064 479.06686 317.59064Q477.8325 317.59064 477.11374 316.7Q476.27 315.6375 476.27 313.21564ZM477.3481 313.21564Q477.3481 315.325 477.8481 316.02814Q478.3481 316.73126 479.06686 316.73126Q479.80124 316.73126 480.2856 316.02814Q480.7856 315.325 480.7856 313.21564Q480.7856 311.09064 480.2856 310.40314Q479.80124 309.7 479.05124 309.7Q478.3325 309.7 477.895 310.3094Q477.3481 311.09064 477.3481 313.21564ZM483.27 313.21564Q483.27 311.6844 483.5825 310.7625Q483.895 309.825 484.50436 309.325Q485.12936 308.825 486.06686 308.825Q486.75436 308.825 487.27 309.10626Q487.80124 309.3875 488.145 309.91876Q488.48874 310.4344 488.67624 311.1844Q488.86374 311.9344 488.86374 313.21564Q488.86374 314.73126 488.55124 315.65314Q488.25436 316.575 487.62936 317.09064Q487.02 317.59064 486.06686 317.59064Q484.8325 317.59064 484.11374 316.7Q483.27 315.6375 483.27 313.21564ZM484.3481 313.21564Q484.3481 315.325 484.8481 316.02814Q485.3481 316.73126 486.06686 316.73126Q486.80124 316.73126 487.2856 316.02814Q487.7856 315.325 487.7856 313.21564Q487.7856 311.09064 487.2856 310.40314Q486.80124 309.7 486.05124 309.7Q485.3325 309.7 484.895 310.3094Q484.3481 311.09064 484.3481 313.21564ZM490.27 313.21564Q490.27 311.6844 490.5825 310.7625Q490.895 309.825 491.50436 309.325Q492.12936 308.825 493.06686 308.825Q493.75436 308.825 494.27 309.10626Q494.80124 309.3875 495.145 309.91876Q495.48874 310.4344 495.67624 311.1844Q495.86374 311.9344 495.86374 313.21564Q495.86374 314.73126 495.55124 315.65314Q495.25436 316.575 494.62936 317.09064Q494.02 317.59064 493.06686 317.59064Q491.8325 317.59064 491.11374 316.7Q490.27 315.6375 490.27 313.21564ZM491.3481 313.21564Q491.3481 315.325 491.8481 316.02814Q492.3481 316.73126 493.06686 316.73126Q493.80124 316.73126 494.2856 316.02814Q494.7856 315.325 494.7856 313.21564Q494.7856 311.09064 494.2856 310.40314Q493.80124 309.7 493.05124 309.7Q492.3325 309.7 491.895 310.3094Q491.3481 311.09064 491.3481 313.21564ZM497.27 313.21564Q497.27 311.6844 497.5825 310.7625Q497.895 309.825 498.50436 309.325Q499.12936 308.825 500.06686 308.825Q500.75436 308.825 501.27 309.10626Q501.80124 309.3875 502.145 309.91876Q502.48874 310.4344 502.67624 311.1844Q502.86374 311.9344 502.86374 313.21564Q502.86374 314.73126 502.55124 315.65314Q502.25436 316.575 501.62936 317.09064Q501.02 317.59064 500.06686 317.59064Q498.8325 317.59064 498.11374 316.7Q497.27 315.6375 497.27 313.21564ZM498.3481 313.21564Q498.3481 315.325 498.8481 316.02814Q499.3481 316.73126 500.06686 316.73126Q500.80124 316.73126 501.2856 316.02814Q501.7856 315.325 501.7856 313.21564Q501.7856 311.09064 501.2856 310.40314Q500.80124 309.7 500.05124 309.7Q499.3325 309.7 498.895 310.3094Q498.3481 311.09064 498.3481 313.21564Z" fill-rule="nonzero"/><path fill="#000000" d="M569.91876 310.96564L568.8719 311.04376Q568.73126 310.41876 568.48126 310.1375Q568.04376 309.6844 567.41876 309.6844Q566.91876 309.6844 566.52814 309.96564Q566.04376 310.34064 565.7469 311.04376Q565.46564 311.73126 565.45 313.0125Q565.825 312.4344 566.3719 312.15314Q566.9344 311.8719 567.54376 311.8719Q568.59064 311.8719 569.325 312.65314Q570.075 313.4344 570.075 314.65314Q570.075 315.46564 569.71564 316.16876Q569.3719 316.85626 568.7625 317.23126Q568.15314 317.59064 567.3875 317.59064Q566.0594 317.59064 565.23126 316.6219Q564.40314 315.65314 564.40314 313.4344Q564.40314 310.9344 565.325 309.8094Q566.1219 308.825 567.48126 308.825Q568.4969 308.825 569.1375 309.40314Q569.79376 309.96564 569.91876 310.96564ZM565.6219 314.66876Q565.6219 315.21564 565.84064 315.71564Q566.075 316.2 566.48126 316.46564Q566.90314 316.73126 567.3719 316.73126Q568.02814 316.73126 568.5125 316.2Q568.9969 315.65314 568.9969 314.73126Q568.9969 313.84064 568.5125 313.325Q568.04376 312.8094 567.325 312.8094Q566.60626 312.8094 566.10626 313.325Q565.6219 313.84064 565.6219 314.66876ZM571.45 313.21564Q571.45 311.6844 571.7625 310.7625Q572.075 309.825 572.6844 309.325Q573.3094 308.825 574.2469 308.825Q574.9344 308.825 575.45 309.10626Q575.98126 309.3875 576.325 309.91876Q576.66876 310.4344 576.85626 311.1844Q577.04376 311.9344 577.04376 313.21564Q577.04376 314.73126 576.73126 315.65314Q576.4344 316.575 575.8094 317.09064Q575.2 317.59064 574.2469 317.59064Q573.0125 317.59064 572.29376 316.7Q571.45 315.6375 571.45 313.21564ZM572.52814 313.21564Q572.52814 315.325 573.02814 316.02814Q573.52814 316.73126 574.2469 316.73126Q574.98126 316.73126 575.46564 316.02814Q575.96564 315.325 575.96564 313.21564Q575.96564 311.09064 575.46564 310.40314Q574.98126 309.7 574.23126 309.7Q573.5125 309.7 573.075 310.3094Q572.52814 311.09064 572.52814 313.21564ZM578.45 313.21564Q578.45 311.6844 578.7625 310.7625Q579.075 309.825 579.6844 309.325Q580.3094 308.825 581.2469 308.825Q581.9344 308.825 582.45 309.10626Q582.98126 309.3875 583.325 309.91876Q583.66876 310.4344 583.85626 311.1844Q584.04376 311.9344 584.04376 313.21564Q584.04376 314.73126 583.73126 315.65314Q583.4344 316.575 582.8094 317.09064Q582.2 317.59064 581.2469 317.59064Q580.0125 317.59064 579.29376 316.7Q578.45 315.6375 578.45 313.21564ZM579.52814 313.21564Q579.52814 315.325 580.02814 316.02814Q580.52814 316.73126 581.2469 316.73126Q581.98126 316.73126 582.46564 316.02814Q582.96564 315.325 582.96564 313.21564Q582.96564 311.09064 582.46564 310.40314Q581.98126 309.7 581.23126 309.7Q580.5125 309.7 580.075 310.3094Q579.52814 311.09064 579.52814 313.21564ZM585.45 313.21564Q585.45 311.6844 585.7625 310.7625Q586.075 309.825 586.6844 309.325Q587.3094 308.825 588.2469 308.825Q588.9344 308.825 589.45 309.10626Q589.98126 309.3875 590.325 309.91876Q590.66876 310.4344 590.85626 311.1844Q591.04376 311.9344 591.04376 313.21564Q591.04376 314.73126 590.73126 315.65314Q590.4344 316.575 589.8094 317.09064Q589.2 317.59064 588.2469 317.59064Q587.0125 317.59064 586.29376 316.7Q585.45 315.6375 585.45 313.21564ZM586.52814 313.21564Q586.52814 315.325 587.02814 316.02814Q587.52814 316.73126 588.2469 316.73126Q588.98126 316.73126 589.46564 316.02814Q589.96564 315.325 589.96564 313.21564Q589.96564 311.09064 589.46564 310.40314Q588.98126 309.7 588.23126 309.7Q587.5125 309.7 587.075 310.3094Q586.52814 311.09064 586.52814 313.21564ZM592.45 313.21564Q592.45 311.6844 592.7625 310.7625Q593.075 309.825 593.6844 309.325Q594.3094 308.825 595.2469 308.825Q595.9344 308.825 596.45 309.10626Q596.98126 309.3875 597.325 309.91876Q597.66876 310.4344 597.85626 311.1844Q598.04376 311.9344 598.04376 313.21564Q598.04376 314.73126 597.73126 315.65314Q597.4344 316.575 596.8094 317.09064Q596.2 317.59064 595.2469 317.59064Q594.0125 317.59064 593.29376 316.7Q592.45 315.6375 592.45 313.21564ZM593.52814 313.21564Q593.52814 315.325 594.02814 316.02814Q594.52814 316.73126 595.2469 316.73126Q595.98126 316.73126 596.46564 316.02814Q596.96564 315.325 596.96564 313.21564Q596.96564 311.09064 596.46564 310.40314Q595.98126 309.7 595.23126 309.7Q594.5125 309.7 594.075 310.3094Q593.52814 311.09064 593.52814 313.21564Z" fill-rule="nonzero"/><path stroke="#4285f4" stroke-width="4.0" stroke-linecap="butt" d="M160.0 25.55L172.0 25.55" fill-rule="nonzero"/><path fill="#1a1a1a" d="M180.875 29.55L180.875 20.95625L184.10938 20.95625Q185.09375 20.95625 185.6875 21.221874Q186.28125 21.4875 186.60938 22.034374Q186.95312 22.565624 186.95312 23.159374Q186.95312 23.70625 186.65625 24.190624Q186.35938 24.675 185.75 24.971874Q186.53125 25.20625 186.9375 25.76875Q187.35938 26.315624 187.35938 27.065624Q187.35938 27.659374 187.10938 28.190624Q186.85938 28.70625 186.48438 28.9875Q186.10938 29.26875 185.53125 29.409374Q184.96875 29.55 184.15625 29.55L180.875 29.55ZM182.01562 24.565624L183.875 24.565624Q184.625 24.565624 184.95312 24.471874Q185.39062 24.346874 185.60938 24.05Q185.82812 23.7375 185.82812 23.284374Q185.82812 22.8625 185.625 22.534374Q185.42188 22.20625 185.03125 22.096874Q184.65625 21.971874 183.73438 21.971874L182.01562 21.971874L182.01562 24.565624ZM182.01562 28.534374L184.15625 28.534374Q184.70312 28.534374 184.92188 28.4875Q185.32812 28.425 185.57812 28.26875Q185.84375 28.096874 186.01562 27.784374Q186.1875 27.471874 186.1875 27.065624Q186.1875 26.58125 185.9375 26.221874Q185.70312 25.8625 185.26562 25.721874Q184.82812 25.58125 184.0 25.58125L182.01562 25.58125L182.01562 28.534374ZM192.85938 28.784374Q192.26562 29.284374 191.71875 29.4875Q191.1875 29.690624 190.5625 29.690624Q189.53125 29.690624 188.98438 29.190624Q188.4375 28.690624 188.4375 27.909374Q188.4375 27.45625 188.64062 27.08125Q188.84375 26.690624 189.1875 26.471874Q189.53125 26.2375 189.95312 26.128124Q190.25 26.034374 190.89062 25.95625Q192.15625 25.815624 192.76562 25.596874Q192.76562 25.378124 192.76562 25.33125Q192.76562 24.675 192.46875 24.409374Q192.0625 24.065624 191.26562 24.065624Q190.53125 24.065624 190.17188 24.33125Q189.8125 24.58125 189.64062 25.2375L188.60938 25.096874Q188.75 24.440624 189.07812 24.034374Q189.40625 23.628124 190.01562 23.409374Q190.625 23.190624 191.42188 23.190624Q192.21875 23.190624 192.71875 23.378124Q193.21875 23.565624 193.45312 23.846874Q193.6875 24.128124 193.78125 24.565624Q193.82812 24.83125 193.82812 25.534374L193.82812 26.940624Q193.82812 28.409374 193.89062 28.8Q193.96875 29.190624 194.17188 29.55L193.0625 29.55Q192.90625 29.221874 192.85938 28.784374ZM192.76562 26.425Q192.1875 26.659374 191.04688 26.83125Q190.39062 26.925 190.125 27.05Q189.85938 27.159374 189.70312 27.378124Q189.5625 27.596874 189.5625 27.878124Q189.5625 28.3 189.875 28.58125Q190.20312 28.8625 190.8125 28.8625Q191.42188 28.8625 191.89062 28.596874Q192.375 28.33125 192.59375 27.8625Q192.76562 27.503124 192.76562 26.815624L192.76562 26.425ZM195.375 27.690624L196.40625 27.534374Q196.5 28.159374 196.89062 28.4875Q197.29688 28.815624 198.03125 28.815624Q198.75 28.815624 199.09375 28.534374Q199.45312 28.2375 199.45312 27.83125Q199.45312 27.471874 199.14062 27.26875Q198.92188 27.128124 198.0625 26.909374Q196.90625 26.6125 196.45312 26.409374Q196.01562 26.190624 195.78125 25.815624Q195.54688 25.440624 195.54688 24.971874Q195.54688 24.565624 195.73438 24.20625Q195.92188 23.846874 196.25 23.6125Q196.5 23.440624 196.92188 23.315624Q197.34375 23.190624 197.84375 23.190624Q198.5625 23.190624 199.10938 23.409374Q199.67188 23.6125 199.9375 23.971874Q200.20312 24.33125 200.29688 24.925L199.26562 25.065624Q199.20312 24.596874 198.85938 24.33125Q198.53125 24.05 197.90625 24.05Q197.1875 24.05 196.875 24.3Q196.5625 24.534374 196.5625 24.8625Q196.5625 25.065624 196.6875 25.221874Q196.82812 25.39375 197.09375 25.503124Q197.25 25.565624 198.03125 25.76875Q199.15625 26.08125 199.59375 26.26875Q200.03125 26.45625 200.28125 26.815624Q200.53125 27.175 200.53125 27.721874Q200.53125 28.253124 200.21875 28.721874Q199.92188 29.175 199.34375 29.440624Q198.76562 29.690624 198.03125 29.690624Q196.8125 29.690624 196.17188 29.190624Q195.54688 28.675 195.375 27.690624ZM207.04688 27.55L208.14062 27.675Q207.89062 28.628124 207.1875 29.159374Q206.48438 29.690624 205.40625 29.690624Q204.04688 29.690624 203.23438 28.846874Q202.4375 28.003124 202.4375 26.4875Q202.4375 24.925 203.25 24.065624Q204.0625 23.190624 205.34375 23.190624Q206.59375 23.190624 207.375 24.034374Q208.17188 24.878124 208.17188 26.425Q208.17188 26.51875 208.17188 26.70625L203.53125 26.70625Q203.59375 27.7375 204.10938 28.284374Q204.625 28.815624 205.40625 28.815624Q205.98438 28.815624 206.39062 28.51875Q206.8125 28.20625 207.04688 27.55ZM203.59375 25.846874L207.0625 25.846874Q207.0 25.05 206.67188 24.659374Q206.15625 24.05 205.35938 24.05Q204.625 24.05 204.125 24.534374Q203.64062 25.01875 203.59375 25.846874ZM209.76562 29.55L209.76562 20.95625L210.82812 20.95625L210.82812 29.55L209.76562 29.55ZM212.79688 22.175L212.79688 20.95625L213.85938 20.95625L213.85938 22.175L212.79688 22.175ZM212.79688 29.55L212.79688 23.33125L213.85938 23.33125L213.85938 29.55L212.79688 29.55ZM215.79688 29.55L215.79688 23.33125L216.73438 23.33125L216.73438 24.20625Q217.42188 23.190624 218.71875 23.190624Q219.28125 23.190624 219.75 23.39375Q220.23438 23.596874 220.46875 23.925Q220.70312 24.253124 220.79688 24.690624Q220.84375 24.9875 220.84375 25.721874L220.84375 29.55L219.79688 29.55L219.79688 25.76875Q219.79688 25.1125 219.67188 24.8Q219.54688 24.4875 219.23438 24.3Q218.92188 24.096874 218.5 24.096874Q217.82812 24.096874 217.32812 24.534374Q216.84375 24.95625 216.84375 26.14375L216.84375 29.55L215.79688 29.55ZM227.04688 27.55L228.14062 27.675Q227.89062 28.628124 227.1875 29.159374Q226.48438 29.690624 225.40625 29.690624Q224.04688 29.690624 223.23438 28.846874Q222.4375 28.003124 222.4375 26.4875Q222.4375 24.925 223.25 24.065624Q224.0625 23.190624 225.34375 23.190624Q226.59375 23.190624 227.375 24.034374Q228.17188 24.878124 228.17188 26.425Q228.17188 26.51875 228.17188 26.70625L223.53125 26.70625Q223.59375 27.7375 224.10938 28.284374Q224.625 28.815624 225.40625 28.815624Q225.98438 28.815624 226.39062 28.51875Q226.8125 28.20625 227.04688 27.55ZM223.59375 25.846874L227.0625 25.846874Q227.0 25.05 226.67188 24.659374Q226.15625 24.05 225.35938 24.05Q224.625 24.05 224.125 24.534374Q223.64062 25.01875 223.59375 25.846874Z" fill-rule="nonzero"/><path stroke="#ea4335" stroke-width="4.0" stroke-linecap="butt" d="M245.0 25.55L257.0 25.55" fill-rule="nonzero"/><path fill="#1a1a1a" d="M272.0625 26.534374L273.1875 26.83125Q272.82812 28.221874 271.90625 28.95625Q270.98438 29.690624 269.64062 29.690624Q268.25 29.690624 267.375 29.128124Q266.5 28.565624 266.04688 27.503124Q265.59375 26.425 265.59375 25.190624Q265.59375 23.846874 266.10938 22.846874Q266.625 21.846874 267.5625 21.33125Q268.51562 20.815624 269.65625 20.815624Q270.9375 20.815624 271.8125 21.471874Q272.70312 22.128124 273.04688 23.315624L271.92188 23.58125Q271.625 22.64375 271.04688 22.221874Q270.48438 21.784374 269.625 21.784374Q268.64062 21.784374 267.96875 22.26875Q267.3125 22.7375 267.03125 23.534374Q266.76562 24.33125 266.76562 25.190624Q266.76562 26.284374 267.07812 27.096874Q267.40625 27.909374 268.07812 28.315624Q268.75 28.721874 269.54688 28.721874Q270.5 28.721874 271.15625 28.175Q271.82812 27.628124 272.0625 26.534374ZM274.40625 26.440624Q274.40625 24.70625 275.35938 23.878124Q276.15625 23.190624 277.3125 23.190624Q278.59375 23.190624 279.40625 24.034374Q280.23438 24.8625 280.23438 26.346874Q280.23438 27.55 279.875 28.2375Q279.51562 28.925 278.8125 29.315624Q278.125 29.690624 277.3125 29.690624Q276.01562 29.690624 275.20312 28.8625Q274.40625 28.01875 274.40625 26.440624ZM275.48438 26.440624Q275.48438 27.628124 276.0 28.221874Q276.53125 28.815624 277.3125 28.815624Q278.10938 28.815624 278.625 28.221874Q279.14062 27.628124 279.14062 26.409374Q279.14062 25.253124 278.60938 24.659374Q278.09375 24.065624 277.3125 24.065624Q276.53125 24.065624 276.0 24.659374Q275.48438 25.2375 275.48438 26.440624ZM281.78125 29.55L281.78125 23.33125L282.73438 23.33125L282.73438 24.26875Q283.09375 23.6125 283.39062 23.409374Q283.70312 23.190624 284.07812 23.190624Q284.60938 23.190624 285.15625 23.51875L284.79688 24.503124Q284.40625 24.26875 284.03125 24.26875Q283.67188 24.26875 283.39062 24.4875Q283.125 24.690624 283.01562 25.065624Q282.82812 25.628124 282.82812 26.284374L282.82812 29.55L281.78125 29.55ZM285.40625 26.440624Q285.40625 24.70625 286.35938 23.878124Q287.15625 23.190624 288.3125 23.190624Q289.59375 23.190624 290.40625 24.034374Q291.23438 24.8625 291.23438 26.346874Q291.23438 27.55 290.875 28.2375Q290.51562 28.925 289.8125 29.315624Q289.125 29.690624 288.3125 29.690624Q287.01562 29.690624 286.20312 28.8625Q285.40625 28.01875 285.40625 26.440624ZM286.48438 26.440624Q286.48438 27.628124 287.0 28.221874Q287.53125 28.815624 288.3125 28.815624Q289.10938 28.815624 289.625 28.221874Q290.14062 27.628124 290.14062 26.409374Q290.14062 25.253124 289.60938 24.659374Q289.09375 24.065624 288.3125 24.065624Q287.53125 24.065624 287.0 24.659374Q286.48438 25.2375 286.48438 26.440624ZM296.875 29.55L296.875 28.628124Q296.14062 29.690624 294.89062 29.690624Q294.34375 29.690624 293.85938 29.4875Q293.39062 29.26875 293.15625 28.95625Q292.92188 28.628124 292.82812 28.159374Q292.76562 27.8625 292.76562 27.175L292.76562 23.33125L293.82812 23.33125L293.82812 26.784374Q293.82812 27.596874 293.89062 27.89375Q293.98438 28.3 294.29688 28.55Q294.625 28.784374 295.10938 28.784374Q295.57812 28.784374 295.98438 28.55Q296.40625 28.3 296.57812 27.878124Q296.76562 27.45625 296.76562 26.659374L296.76562 23.33125L297.8125 23.33125L297.8125 29.55L296.875 29.55ZM302.09375 28.6125L302.25 29.534374Q301.79688 29.628124 301.45312 29.628124Q300.875 29.628124 300.5625 29.45625Q300.25 29.26875 300.10938 28.971874Q299.98438 28.675 299.98438 27.721874L299.98438 24.14375L299.21875 24.14375L299.21875 23.33125L299.98438 23.33125L299.98438 21.784374L301.03125 21.159374L301.03125 23.33125L302.09375 23.33125L302.09375 24.14375L301.03125 24.14375L301.03125 27.784374Q301.03125 28.2375 301.07812 28.3625Q301.14062 28.4875 301.26562 28.565624Q301.39062 28.64375 301.625 28.64375Q301.8125 28.64375 302.09375 28.6125ZM302.79688 22.175L302.79688 20.95625L303.85938 20.95625L303.85938 22.175L302.79688 22.175ZM302.79688 29.55L302.79688 23.33125L303.85938 23.33125L303.85938 29.55L302.79688 29.55ZM305.79688 29.55L305.79688 23.33125L306.73438 23.33125L306.73438 24.20625Q307.42188 23.190624 308.71875 23.190624Q309.28125 23.190624 309.75 23.39375Q310.23438 23.596874 310.46875 23.925Q310.70312 24.253124 310.79688 24.690624Q310.84375 24.9875 310.84375 25.721874L310.84375 29.55L309.79688 29.55L309.79688 25.76875Q309.79688 25.1125 309.67188 24.8Q309.54688 24.4875 309.23438 24.3Q308.92188 24.096874 308.5 24.096874Q307.82812 24.096874 307.32812 24.534374Q306.84375 24.95625 306.84375 26.14375L306.84375 29.55L305.79688 29.55ZM317.04688 27.55L318.14062 27.675Q317.89062 28.628124 317.1875 29.159374Q316.48438 29.690624 315.40625 29.690624Q314.04688 29.690624 313.23438 28.846874Q312.4375 28.003124 312.4375 26.4875Q312.4375 24.925 313.25 24.065624Q314.0625 23.190624 315.34375 23.190624Q316.59375 23.190624 317.375 24.034374Q318.17188 24.878124 318.17188 26.425Q318.17188 26.51875 318.17188 26.70625L313.53125 26.70625Q313.59375 27.7375 314.10938 28.284374Q314.625 28.815624 315.40625 28.815624Q315.98438 28.815624 316.39062 28.51875Q316.8125 28.20625 317.04688 27.55ZM313.59375 25.846874L317.0625 25.846874Q317.0 25.05 316.67188 24.659374Q316.15625 24.05 315.35938 24.05Q314.625 24.05 314.125 24.534374Q313.64062 25.01875 313.59375 25.846874Z" fill-rule="nonzero"/><path stroke="#fbbc04" stroke-width="4.0" stroke-linecap="butt" stroke-dasharray="13.0,9.0,4.0,9.0" d="M335.0 25.55L361.0 25.55" fill-rule="nonzero"/><path fill="#1a1a1a" d="M376.0625 26.534374L377.1875 26.83125Q376.82812 28.221874 375.90625 28.95625Q374.98438 29.690624 373.64062 29.690624Q372.25 29.690624 371.375 29.128124Q370.5 28.565624 370.04688 27.503124Q369.59375 26.425 369.59375 25.190624Q369.59375 23.846874 370.10938 22.846874Q370.625 21.846874 371.5625 21.33125Q372.51562 20.815624 373.65625 20.815624Q374.9375 20.815624 375.8125 21.471874Q376.70312 22.128124 377.04688 23.315624L375.92188 23.58125Q375.625 22.64375 375.04688 22.221874Q374.48438 21.784374 373.625 21.784374Q372.64062 21.784374 371.96875 22.26875Q371.3125 22.7375 371.03125 23.534374Q370.76562 24.33125 370.76562 25.190624Q370.76562 26.284374 371.07812 27.096874Q371.40625 27.909374 372.07812 28.315624Q372.75 28.721874 373.54688 28.721874Q374.5 28.721874 375.15625 28.175Q375.82812 27.628124 376.0625 26.534374ZM382.875 29.55L382.875 28.628124Q382.14062 29.690624 380.89062 29.690624Q380.34375 29.690624 379.85938 29.4875Q379.39062 29.26875 379.15625 28.95625Q378.92188 28.628124 378.82812 28.159374Q378.76562 27.8625 378.76562 27.175L378.76562 23.33125L379.82812 23.33125L379.82812 26.784374Q379.82812 27.596874 379.89062 27.89375Q379.98438 28.3 380.29688 28.55Q380.625 28.784374 381.10938 28.784374Q381.57812 28.784374 381.98438 28.55Q382.40625 28.3 382.57812 27.878124Q382.76562 27.45625 382.76562 26.659374L382.76562 23.33125L383.8125 23.33125L383.8125 29.55L382.875 29.55ZM385.375 27.690624L386.40625 27.534374Q386.5 28.159374 386.89062 28.4875Q387.29688 28.815624 388.03125 28.815624Q388.75 28.815624 389.09375 28.534374Q389.45312 28.2375 389.45312 27.83125Q389.45312 27.471874 389.14062 27.26875Q388.92188 27.128124 388.0625 26.909374Q386.90625 26.6125 386.45312 26.409374Q386.01562 26.190624 385.78125 25.815624Q385.54688 25.440624 385.54688 24.971874Q385.54688 24.565624 385.73438 24.20625Q385.92188 23.846874 386.25 23.6125Q386.5 23.440624 386.92188 23.315624Q387.34375 23.190624 387.84375 23.190624Q388.5625 23.190624 389.10938 23.409374Q389.67188 23.6125 389.9375 23.971874Q390.20312 24.33125 390.29688 24.925L389.26562 25.065624Q389.20312 24.596874 388.85938 24.33125Q388.53125 24.05 387.90625 24.05Q387.1875 24.05 386.875 24.3Q386.5625 24.534374 386.5625 24.8625Q386.5625 25.065624 386.6875 25.221874Q386.82812 25.39375 387.09375 25.503124Q387.25 25.565624 388.03125 25.76875Q389.15625 26.08125 389.59375 26.26875Q390.03125 26.45625 390.28125 26.815624Q390.53125 27.175 390.53125 27.721874Q390.53125 28.253124 390.21875 28.721874Q389.92188 29.175 389.34375 29.440624Q388.76562 29.690624 388.03125 29.690624Q386.8125 29.690624 386.17188 29.190624Q385.54688 28.675 385.375 27.690624ZM395.09375 28.6125L395.25 29.534374Q394.79688 29.628124 394.45312 29.628124Q393.875 29.628124 393.5625 29.45625Q393.25 29.26875 393.10938 28.971874Q392.98438 28.675 392.98438 27.721874L392.98438 24.14375L392.21875 24.14375L392.21875 23.33125L392.98438 23.33125L392.98438 21.784374L394.03125 21.159374L394.03125 23.33125L395.09375 23.33125L395.09375 24.14375L394.03125 24.14375L394.03125 27.784374Q394.03125 28.2375 394.07812 28.3625Q394.14062 28.4875 394.26562 28.565624Q394.39062 28.64375 394.625 28.64375Q394.8125 28.64375 395.09375 28.6125ZM395.40625 26.440624Q395.40625 24.70625 396.35938 23.878124Q397.15625 23.190624 398.3125 23.190624Q399.59375 23.190624 400.40625 24.034374Q401.23438 24.8625 401.23438 26.346874Q401.23438 27.55 400.875 28.2375Q400.51562 28.925 399.8125 29.315624Q399.125 29.690624 398.3125 29.690624Q397.01562 29.690624 396.20312 28.8625Q395.40625 28.01875 395.40625 26.440624ZM396.48438 26.440624Q396.48438 27.628124 397.0 28.221874Q397.53125 28.815624 398.3125 28.815624Q399.10938 28.815624 399.625 28.221874Q400.14062 27.628124 400.14062 26.409374Q400.14062 25.253124 399.60938 24.659374Q399.09375 24.065624 398.3125 24.065624Q397.53125 24.065624 397.0 24.659374Q396.48438 25.2375 396.48438 26.440624ZM402.79688 29.55L402.79688 23.33125L403.73438 23.33125L403.73438 24.20625Q404.03125 23.7375 404.51562 23.471874Q405.0 23.190624 405.625 23.190624Q406.3125 23.190624 406.75 23.471874Q407.20312 23.753124 407.375 24.26875Q408.125 23.190624 409.29688 23.190624Q410.23438 23.190624 410.71875 23.70625Q411.21875 24.20625 411.21875 25.284374L411.21875 29.55L410.17188 29.55L410.17188 25.628124Q410.17188 25.003124 410.0625 24.721874Q409.96875 24.440624 409.70312 24.26875Q409.4375 24.096874 409.0625 24.096874Q408.40625 24.096874 407.96875 24.534374Q407.54688 24.971874 407.54688 25.940624L407.54688 29.55L406.48438 29.55L406.48438 25.503124Q406.48438 24.8 406.21875 24.45625Q405.96875 24.096874 405.39062 24.096874Q404.9375 24.096874 404.5625 24.33125Q404.1875 24.565624 404.01562 25.01875Q403.84375 25.471874 403.84375 26.315624L403.84375 29.55L402.79688 29.55ZM418.51562 29.55L416.15625 23.33125L417.26562 23.33125L418.60938 27.05Q418.8125 27.659374 419.0 28.3Q419.14062 27.815624 419.39062 27.128124L420.78125 23.33125L421.85938 23.33125L419.5 29.55L418.51562 29.55ZM421.79688 22.175L421.79688 20.95625L422.85938 20.95625L422.85938 22.175L421.79688 22.175ZM421.79688 29.55L421.79688 23.33125L422.85938 23.33125L422.85938 29.55L421.79688 29.55ZM429.04688 27.55L430.14062 27.675Q429.89062 28.628124 429.1875 29.159374Q428.48438 29.690624 427.40625 29.690624Q426.04688 29.690624 425.23438 28.846874Q424.4375 28.003124 424.4375 26.4875Q424.4375 24.925 425.25 24.065624Q426.0625 23.190624 427.34375 23.190624Q428.59375 23.190624 429.375 24.034374Q430.17188 24.878124 430.17188 26.425Q430.17188 26.51875 430.17188 26.70625L425.53125 26.70625Q425.59375 27.7375 426.10938 28.284374Q426.625 28.815624 427.40625 28.815624Q427.98438 28.815624 428.39062 28.51875Q428.8125 28.20625 429.04688 27.55ZM425.59375 25.846874L429.0625 25.846874Q429.0 25.05 428.67188 24.659374Q428.15625 24.05 427.35938 24.05Q426.625 24.05 426.125 24.534374Q425.64062 25.01875 425.59375 25.846874ZM432.9375 29.55L431.03125 23.33125L432.125 23.33125L433.10938 26.925L433.48438 28.253124Q433.51562 28.159374 433.8125 26.971874L434.79688 23.33125L435.875 23.33125L436.8125 26.940624L437.125 28.128124L437.48438 26.925L438.54688 23.33125L439.57812 23.33125L437.625 29.55L436.53125 29.55L435.54688 25.815624L435.29688 24.76875L434.04688 29.55L432.9375 29.55Z" fill-rule="nonzero"/></svg>